<?xml version="1.0" standalone="no"?>
<!DOCTYPE svg PUBLIC "-//W3C//DTD SVG 20010904//EN"
 "http://www.w3.org/TR/2001/REC-SVG-20010904/DTD/svg10.dtd">
<svg version="1.0" xmlns="http://www.w3.org/2000/svg"
 width="300.000000pt" height="300.000000pt" viewBox="0 0 300.000000 300.000000"
 preserveAspectRatio="xMidYMid meet">
<metadata>
Created by potrace 1.11, written by Peter Selinger 2001-2013
</metadata>
<g transform="translate(0.000000,300.000000) scale(0.100000,-0.100000)"
fill="#000000" stroke="none">
<path d="M1369 2866 c-2 -2 -31 -6 -64 -10 -148 -15 -348 -82 -490 -163 -372
-212 -623 -575 -691 -998 -10 -65 -11 -336 -1 -400 84 -533 445 -961 946
-1119 125 -40 184 -51 304 -61 66 -6 69 0 42 76 -24 68 -155 295 -193 334 -19
20 -65 50 -102 69 -186 91 -302 238 -316 396 -5 62 18 196 42 241 13 26 16 27
51 17 77 -20 216 -102 279 -163 117 -115 147 -227 119 -453 -7 -56 -5 -69 20
-125 26 -57 71 -135 86 -147 3 -3 11 -14 17 -25 10 -19 11 -19 20 4 10 29 8
441 -4 509 -19 120 -37 166 -148 393 -43 88 -51 98 -89 114 -235 98 -335 217
-341 405 -3 74 17 182 37 208 15 19 53 10 142 -34 195 -93 280 -222 267 -404
-13 -182 -12 -187 51 -311 63 -124 79 -149 95 -149 14 0 16 758 2 810 -5 20
-21 50 -35 66 -83 95 -118 225 -89 326 23 76 80 166 135 212 l32 27 34 -33
c89 -86 144 -211 136 -308 -5 -66 -25 -114 -86 -203 -26 -38 -48 -76 -48 -85
-9 -92 -12 -780 -4 -792 10 -17 20 -5 72 87 75 131 79 149 63 230 -50 250 43
431 273 531 114 50 129 53 133 27 2 -11 10 -58 20 -105 21 -110 15 -184 -25
-264 -39 -80 -106 -146 -195 -192 -125 -65 -149 -89 -221 -229 -18 -33 -45
-85 -62 -115 -54 -99 -64 -167 -58 -415 8 -349 10 -354 89 -226 31 51 61 104
67 118 5 14 9 93 8 177 -1 175 4 214 36 276 45 87 134 158 288 231 87 40 118
37 135 -15 22 -67 27 -107 26 -203 0 -86 -3 -97 -38 -166 -59 -117 -149 -199
-271 -247 -107 -43 -137 -70 -208 -190 -44 -74 -82 -164 -92 -217 -3 -16 -7
-39 -10 -52 -4 -23 -3 -23 58 -17 500 48 922 348 1134 806 35 74 76 200 92
280 6 30 13 69 17 85 3 17 8 98 10 180 3 172 -16 308 -67 458 -116 348 -361
633 -684 796 -106 53 -244 103 -335 120 -30 6 -68 13 -85 17 -36 7 -319 16
-326 10z"/>
</g>
</svg>
